<?xml version="1.0" standalone="no"?>
<!DOCTYPE svg PUBLIC "-//W3C//DTD SVG 20010904//EN"
 "http://www.w3.org/TR/2001/REC-SVG-20010904/DTD/svg10.dtd">
<svg version="1.0" xmlns="http://www.w3.org/2000/svg"
 width="265.000000pt" height="265.000000pt" viewBox="0 0 265.000000 265.000000"
 preserveAspectRatio="xMidYMid meet">
<metadata>
Created by potrace 1.11, written by Peter Selinger 2001-2013
</metadata>
<g transform="translate(0.000000,265.000000) scale(0.100000,-0.100000)"
fill="#000000" stroke="none">
<path d="M1315 2480 c0 -93 -3 -170 -7 -170 -5 0 -8 -18 -8 -41 0 -22 3 -38 8
-35 4 2 7 -28 7 -69 l0 -72 -28 10 c-23 8 -27 14 -22 31 18 57 26 126 21 169
-6 56 -26 117 -38 117 -4 0 -8 5 -8 10 0 11 -12 28 -42 58 -9 10 -42 26 -72
36 -54 19 -58 19 -114 2 -133 -41 -239 -167 -278 -329 -19 -83 -14 -129 22
-201 13 -27 12 -30 -9 -50 -104 -98 -291 -405 -357 -585 -26 -70 -30 -96 -30
-179 0 -187 70 -307 239 -411 21 -14 5 -29 -40 -36 -50 -9 -116 -58 -141 -106
-45 -88 -30 -201 35 -255 l32 -27 -1 -101 c0 -85 -4 -111 -26 -163 -24 -58
-24 -63 -8 -63 10 0 22 9 25 20 3 11 13 20 21 20 11 0 13 -6 9 -20 -6 -19 -2
-20 99 -20 l106 0 0 90 c0 93 18 155 43 147 21 -7 39 -59 44 -126 2 -36 6 -76
9 -88 l4 -23 256 0 c168 0 253 -3 249 -10 -4 -7 220 -10 664 -10 l671 0 0
1325 0 1325 -668 0 -667 0 0 -170z m-335 -48 c0 -15 -24 -32 -47 -32 -25 0
-29 10 -11 28 13 13 58 16 58 4z m-80 -49 c0 -14 -35 -60 -69 -92 -24 -23 -31
-36 -25 -49 13 -30 17 -123 5 -135 -19 -19 -31 11 -31 78 0 67 25 133 67 178
25 25 53 36 53 20z m-20 -112 c0 -5 -7 -12 -16 -15 -22 -9 -24 -8 -24 9 0 8 9
15 20 15 11 0 20 -4 20 -9z m-241 -533 c-59 -101 -128 -253 -155 -343 -20 -69
-27 -113 -28 -190 -1 -91 2 -105 27 -157 27 -55 86 -123 135 -156 21 -14 22
-16 6 -33 -9 -10 -13 -23 -9 -28 11 -19 -11 -12 -51 17 -145 105 -200 263
-155 442 25 100 120 300 197 418 62 92 80 109 33 30z m613 26 c37 -19 68 -62
68 -95 0 -61 -63 -84 -335 -121 -232 -31 -289 -17 -317 75 -12 39 -11 41 22
69 44 37 137 65 254 78 184 20 258 19 308 -6z m-117 -589 c8 -93 3 -111 -37
-119 -59 -12 -58 -14 -58 88 0 102 0 102 61 105 26 1 27 -1 34 -74z m-105 -30
c0 -54 -4 -95 -10 -95 -17 0 -48 41 -54 72 -3 17 -6 48 -6 69 0 33 3 38 28 42
15 2 30 5 35 6 4 0 7 -42 7 -94z m-310 -367 c0 -6 -67 15 -76 25 -1 1 0 15 3
32 l6 29 34 -39 c18 -21 33 -42 33 -47z m50 -408 c14 -26 5 -40 -24 -40 -28 0
-50 24 -42 45 8 22 53 19 66 -5z m-240 -199 c0 -49 -12 -91 -26 -91 -10 0 -11
6 -4 26 6 14 10 41 10 60 0 19 5 34 10 34 6 0 10 -13 10 -29z"/>
<path d="M1292 2345 c0 -16 2 -22 5 -12 2 9 2 23 0 30 -3 6 -5 -1 -5 -18z"/>
<path d="M1292 2190 c0 -14 2 -19 5 -12 2 6 2 18 0 25 -3 6 -5 1 -5 -13z"/>
<path d="M1277 2119 c7 -7 15 -10 18 -7 3 3 -2 9 -12 12 -14 6 -15 5 -6 -5z"/>
</g>
</svg>
